<?xml version="1.0" encoding="UTF-8"?>
<mxfile>
  <diagram name="Plano de Emergencia">
    <mxGraphModel dx="1122" dy="793" grid="1" gridSize="10" guides="1" tooltips="1" connect="1" arrows="1" fold="1" page="1" pageScale="1" pageWidth="800" pageHeight="600">
      <root>
        <mxCell id="0" />
        <mxCell id="1" parent="0" />
        
        <!-- Apartamento (rectángulo grande) -->
        <mxCell id="2" value="Apartamento" style="rounded=0;strokeColor=#000000;fillColor=#F5F5F5;" vertex="1" parent="1">
          <mxGeometry x="50" y="50" width="600" height="400" as="geometry" />
        </mxCell>
        
        <!-- Puerta de salida -->
        <mxCell id="3" value="Salida" style="strokeColor=#FF0000;fillColor=#FFAAAA;" vertex="1" parent="1">
          <mxGeometry x="300" y="450" width="50" height="10" as="geometry" />
        </mxCell>
        
        <!-- Extintor (círculo) -->
        <mxCell id="4" value="Extintor" style="shape=ellipse;strokeColor=#FF0000;fillColor=#FF5555;" vertex="1" parent="1">
          <mxGeometry x="100" y="100" width="20" height="20" as="geometry" />
        </mxCell>
        
        <!-- Ruta de evacuación (flecha) -->
        <mxCell id="5" edge="1" parent="1" source="4" target="3" style="edgeStyle=elbowEdgeStyle;strokeColor=#00AA00;">
          <mxGeometry relative="1" as="geometry" />
        </mxCell>
        
      </root>
    </mxGraphModel>
  </diagram>
</mxfile>
